<svg width="24" height="24" viewBox="0 0 24 24" fill="none" xmlns="http://www.w3.org/2000/svg">
    <path d="M1.19977 13.2005H2.3998V21.6007C2.3998 22.9243 3.47622 24.0007 4.79985 24.0007H19.2002C20.5238 24.0007 21.6002 22.9243 21.6002 21.6007V13.2005H22.8002C23.0375 13.2005 23.2695 13.1301 23.4668 12.9982C23.6641 12.8663 23.8179 12.6789 23.9087 12.4597C23.9995 12.2404 24.0232 11.9992 23.977 11.7665C23.9307 11.5337 23.8164 11.3199 23.6487 11.1521L12.8484 0.351849C12.7371 0.240312 12.6048 0.151824 12.4592 0.0914501C12.3137 0.031076 12.1576 0 12 0C11.8424 0 11.6863 0.031076 11.5408 0.0914501C11.3952 0.151824 11.2629 0.240312 11.1516 0.351849L0.351352 11.1521C0.183577 11.3199 0.0693267 11.5337 0.0230447 11.7665C-0.0232374 11.9992 0.000526749 12.2404 0.0913327 12.4597C0.182139 12.6789 0.335909 12.8663 0.533205 12.9982C0.730502 13.1301 0.962465 13.2005 1.19977 13.2005ZM9.59995 21.6007V15.6006H14.4001V21.6007H9.59995ZM12 2.8971L19.2002 10.0973V15.6006L19.2014 21.6007H16.8001V15.6006C16.8001 14.2769 15.7237 13.2005 14.4001 13.2005H9.59995C8.27632 13.2005 7.1999 14.2769 7.1999 15.6006V21.6007H4.79985V10.0973L12 2.8971Z" fill="#A4A4A4"/>
    </svg>
    