<svg width="59" height="25" viewBox="0 0 59 25" fill="none" xmlns="http://www.w3.org/2000/svg">
    <path d="M10.7804 3.12519C10.0889 3.94397 8.98255 4.58977 7.87617 4.49751C7.73788 3.39043 8.27954 2.21416 8.9134 1.48764C9.60489 0.645796 10.815 0.0461283 11.7946 0C11.9098 1.15321 11.4604 2.28335 10.7804 3.12519ZM11.7831 4.71662C10.1811 4.62436 8.80968 5.62765 8.04905 5.62765C7.27689 5.62765 6.11289 4.76275 4.84516 4.78581C3.19712 4.80888 1.66433 5.74297 0.823023 7.23061C-0.905691 10.2059 0.373557 14.6111 2.04465 17.0329C2.86291 18.2322 3.84251 19.5469 5.13328 19.5007C6.35491 19.4546 6.83895 18.705 8.31412 18.705C9.80081 18.705 10.2272 19.5007 11.518 19.4777C12.8549 19.4546 13.6962 18.2783 14.5144 17.079C15.4479 15.7182 15.8283 14.392 15.8513 14.3228C15.8283 14.2998 13.2698 13.3195 13.2467 10.3673C13.2237 7.89947 15.2635 6.7232 15.3557 6.65401C14.2033 4.94726 12.4054 4.76275 11.7831 4.71662ZM21.0374 1.37232V19.3508H23.8264V13.2042H27.6872C31.2138 13.2042 33.6916 10.7825 33.6916 7.27674C33.6916 3.77099 31.2599 1.37232 27.7794 1.37232H21.0374ZM23.8264 3.72486H27.0418C29.462 3.72486 30.845 5.01645 30.845 7.28827C30.845 9.56009 29.462 10.8632 27.0303 10.8632H23.8264V3.72486ZM38.7856 19.4892C40.5373 19.4892 42.1623 18.6012 42.8999 17.1943H42.9575V19.3508H45.5391V10.4019C45.5391 7.80722 43.4646 6.13506 40.2723 6.13506C37.3104 6.13506 35.1207 7.83028 35.04 10.1598H37.5524C37.7599 9.05268 38.7856 8.32616 40.1916 8.32616C41.8973 8.32616 42.8538 9.12187 42.8538 10.5864V11.5782L39.3733 11.7858C36.1349 11.9818 34.3831 13.308 34.3831 15.6144C34.3831 17.9439 36.1925 19.4892 38.7856 19.4892ZM39.5347 17.3558C38.048 17.3558 37.103 16.6408 37.103 15.5452C37.103 14.4151 38.0134 13.7578 39.7537 13.654L42.8538 13.4579V14.4728C42.8538 16.1564 41.4247 17.3558 39.5347 17.3558ZM48.985 24.2404C51.7048 24.2404 52.9841 23.2025 54.102 20.0543L59 6.30805H56.1649L52.8804 16.9291H52.8227L49.5382 6.30805H46.6224L51.3476 19.3969L51.094 20.1927C50.6676 21.5419 49.9761 22.0609 48.743 22.0609C48.524 22.0609 48.0976 22.0378 47.9247 22.0147V24.1712C48.0861 24.2174 48.7775 24.2404 48.985 24.2404Z" fill="black"/>
    </svg>
    