<svg width="74" height="24" viewBox="0 0 74 24" fill="none" xmlns="http://www.w3.org/2000/svg">
<path d="M17.9999 9.38779C17.9999 8.6327 17.9386 8.08167 17.806 7.51025H9.18359V10.9184H14.2448C14.1428 11.7653 13.5918 13.0409 12.3672 13.898L12.3501 14.0121L15.0763 16.1241L15.2652 16.1429C16.9999 14.5408 17.9999 12.1837 17.9999 9.38779Z" fill="#4285F4"/>
<path d="M9.18372 18.3673C11.6633 18.3673 13.7449 17.551 15.2653 16.1429L12.3674 13.8979C11.5919 14.4387 10.551 14.8163 9.18372 14.8163C6.75516 14.8163 4.69395 13.2143 3.95919 11L3.85149 11.0091L1.01669 13.203L0.979614 13.3061C2.4898 16.3061 5.59185 18.3673 9.18372 18.3673Z" fill="#34A853"/>
<path d="M3.95914 11.0001C3.76527 10.4287 3.65307 9.81638 3.65307 9.18376C3.65307 8.55107 3.76527 7.93885 3.94894 7.36743L3.94381 7.24573L1.07348 5.0166L0.979568 5.06127C0.357147 6.30619 0 7.70417 0 9.18376C0 10.6633 0.357147 12.0613 0.979568 13.3062L3.95914 11.0001Z" fill="#FBBC05"/>
<path d="M9.18372 3.551C10.9082 3.551 12.0714 4.29589 12.7347 4.91838L15.3265 2.38776C13.7348 0.908167 11.6633 0 9.18372 0C5.59185 0 2.4898 2.06121 0.979614 5.06119L3.94899 7.36734C4.69396 5.15306 6.75516 3.551 9.18372 3.551Z" fill="#EB4335"/>
<path d="M42.8751 5.288C42.8751 6.136 42.6751 6.936 42.2751 7.688C41.8751 8.44 41.2351 9.056 40.3551 9.536C39.4751 10 38.3471 10.232 36.9711 10.232H33.9471V17H31.2111V0.319999H36.9711C38.2511 0.319999 39.3311 0.543999 40.2111 0.991999C41.1071 1.424 41.7711 2.016 42.2031 2.768C42.6511 3.52 42.8751 4.36 42.8751 5.288ZM36.9711 8C38.0111 8 38.7871 7.768 39.2991 7.304C39.8111 6.824 40.0671 6.152 40.0671 5.288C40.0671 3.464 39.0351 2.552 36.9711 2.552H33.9471V8H36.9711ZM44.4075 10.328C44.4075 9 44.6795 7.824 45.2235 6.8C45.7835 5.776 46.5355 4.984 47.4795 4.424C48.4395 3.848 49.4955 3.56 50.6475 3.56C51.6875 3.56 52.5915 3.768 53.3595 4.184C54.1435 4.584 54.7675 5.088 55.2315 5.696V3.776H57.9915V17H55.2315V15.032C54.7675 15.656 54.1355 16.176 53.3355 16.592C52.5355 17.008 51.6235 17.216 50.5995 17.216C49.4635 17.216 48.4235 16.928 47.4795 16.352C46.5355 15.76 45.7835 14.944 45.2235 13.904C44.6795 12.848 44.4075 11.656 44.4075 10.328ZM55.2315 10.376C55.2315 9.464 55.0395 8.672 54.6555 8C54.2875 7.328 53.7995 6.816 53.1915 6.464C52.5835 6.112 51.9275 5.936 51.2235 5.936C50.5195 5.936 49.8635 6.112 49.2555 6.464C48.6475 6.8 48.1515 7.304 47.7675 7.976C47.3995 8.632 47.2155 9.416 47.2155 10.328C47.2155 11.24 47.3995 12.04 47.7675 12.728C48.1515 13.416 48.6475 13.944 49.2555 14.312C49.8795 14.664 50.5355 14.84 51.2235 14.84C51.9275 14.84 52.5835 14.664 53.1915 14.312C53.7995 13.96 54.2875 13.448 54.6555 12.776C55.0395 12.088 55.2315 11.288 55.2315 10.376ZM73.3242 3.776L65.2122 23.216H62.3802L65.0682 16.784L59.8602 3.776H62.9082L66.6282 13.856L70.4922 3.776H73.3242Z" fill="black"/>
</svg>
