<svg width="69" height="19" viewBox="0 0 69 19" fill="none" xmlns="http://www.w3.org/2000/svg">
    <path d="M11.6796 0.892549C10.8148 0.297997 9.68622 0 8.29395 0H2.90385C2.47704 0 2.24123 0.213458 2.19644 0.639962L0.00687301 14.3845C-0.0158835 14.5195 0.0178908 14.6429 0.107887 14.7552C0.197369 14.8676 0.309916 14.9235 0.444704 14.9235H3.00497C3.45402 14.9235 3.70084 14.7106 3.74615 14.2836L4.35244 10.5781C4.37458 10.3985 4.45356 10.2525 4.58835 10.14C4.72303 10.0278 4.89149 9.95438 5.09362 9.92081C5.29575 9.88745 5.48635 9.87056 5.66635 9.87056C5.84582 9.87056 6.05908 9.88199 6.30652 9.90433C6.55334 9.92668 6.71068 9.93769 6.77812 9.93769C8.70944 9.93769 10.2254 9.39349 11.326 8.30386C12.4262 7.21484 12.9769 5.70468 12.9769 3.77274C12.9769 2.44771 12.5441 1.48772 11.6796 0.89224V0.892549ZM8.90055 5.01961C8.7879 5.80579 8.49629 6.32209 8.02468 6.56922C7.55297 6.81666 6.87924 6.93981 6.00347 6.93981L4.8917 6.97338L5.46452 3.36868C5.50921 3.12186 5.65512 2.9983 5.90236 2.9983H6.54263C7.44053 2.9983 8.09223 3.12773 8.4965 3.38557C8.90055 3.64403 9.03534 4.18884 8.90055 5.01961Z" fill="#003087"/>
    <path d="M68.5615 0H66.0689C65.8212 0 65.6754 0.123566 65.6309 0.370799L63.4411 14.3851L63.4073 14.4524C63.4073 14.5653 63.4522 14.6715 63.5423 14.7726C63.6316 14.8735 63.7445 14.924 63.8791 14.924H66.1028C66.5288 14.924 66.7647 14.7111 66.8103 14.2841L68.9999 0.505586V0.472121C68.9998 0.157546 68.8534 0.000413227 68.5615 0.000413227V0Z" fill="#009CDE"/>
    <path d="M38.4425 5.42424C38.4425 5.31221 38.3974 5.20533 38.3081 5.10452C38.218 5.0035 38.1169 4.95264 38.0049 4.95264H35.4109C35.1634 4.95264 34.9612 5.06549 34.8043 5.28945L31.2335 10.545L29.7512 5.49179C29.6384 5.13273 29.3917 4.95264 29.0102 4.95264H26.4832C26.3706 4.95264 26.2696 5.0033 26.1803 5.10452C26.0902 5.20533 26.0455 5.31242 26.0455 5.42424C26.0455 5.46945 26.2646 6.13175 26.7024 7.41188C27.1402 8.69243 27.6118 10.0737 28.1172 11.556C28.6226 13.0381 28.8863 13.8246 28.9088 13.9137C27.0671 16.4294 26.1466 17.7769 26.1466 17.9563C26.1466 18.2485 26.2924 18.3943 26.5846 18.3943H29.1785C29.4254 18.3943 29.6275 18.2823 29.785 18.0576L38.3755 5.65994C38.4201 5.61546 38.4425 5.5372 38.4425 5.42414V5.42424Z" fill="#003087"/>
    <path d="M62.5984 4.9526H60.038C59.7232 4.9526 59.533 5.32329 59.4656 6.06458C58.8809 5.16647 57.8149 4.7168 56.2648 4.7168C54.6479 4.7168 53.2721 5.32329 52.1382 6.53608C51.0039 7.74887 50.437 9.17542 50.437 10.8147C50.437 12.1401 50.8244 13.1955 51.599 13.9813C52.3739 14.7679 53.4125 15.1604 54.7155 15.1604C55.3667 15.1604 56.0293 15.0254 56.703 14.7561C57.3767 14.4867 57.904 14.1275 58.2866 13.6781C58.2866 13.7007 58.2636 13.8014 58.2192 13.981C58.1738 14.161 58.1517 14.2962 58.1517 14.3852C58.1517 14.745 58.2973 14.9242 58.5897 14.9242H60.9144C61.3406 14.9242 61.5879 14.7112 61.6551 14.2842L63.0365 5.49155C63.0586 5.35666 63.0251 5.2334 62.9354 5.12096C62.8451 5.00892 62.7331 4.9526 62.5984 4.9526ZM58.2021 11.5895C57.6294 12.151 56.9387 12.4316 56.1303 12.4316C55.4787 12.4316 54.9514 12.2522 54.5469 11.8926C54.1424 11.5341 53.9403 11.0399 53.9403 10.4104C53.9403 9.58 54.2211 8.87753 54.7828 8.30491C55.3435 7.73219 56.0404 7.44593 56.8713 7.44593C57.4997 7.44593 58.0219 7.63117 58.4378 8.00156C58.8529 8.37225 59.0613 8.88319 59.0613 9.53469C59.0611 10.3431 58.7748 11.0283 58.2021 11.5895Z" fill="#009CDE"/>
    <path d="M24.3312 4.9526H21.7708C21.456 4.9526 21.2655 5.32329 21.198 6.06458C20.5916 5.16647 19.5247 4.7168 17.9976 4.7168C16.3805 4.7168 15.0047 5.32329 13.8707 6.53608C12.7364 7.74887 12.1696 9.17542 12.1696 10.8147C12.1696 12.1401 12.557 13.1955 13.3319 13.9813C14.1067 14.7679 15.1452 15.1604 16.448 15.1604C17.0765 15.1604 17.7282 15.0254 18.4019 14.7561C19.0756 14.4867 19.6146 14.1275 20.0189 13.6781C19.9288 13.9474 19.8841 14.1833 19.8841 14.3852C19.8841 14.745 20.03 14.9242 20.322 14.9242H22.6465C23.0729 14.9242 23.3202 14.7112 23.3877 14.2842L24.7688 5.49155C24.791 5.35666 24.7574 5.2334 24.6678 5.12096C24.5779 5.00892 24.4658 4.9526 24.3312 4.9526ZM19.9349 11.6061C19.3621 12.157 18.6599 12.4316 17.8294 12.4316C17.1777 12.4316 16.6556 12.2522 16.2628 11.8926C15.8696 11.5341 15.6732 11.0399 15.6732 10.4104C15.6732 9.58 15.9538 8.87753 16.5155 8.30491C17.0766 7.73219 17.7729 7.44583 18.6042 7.44583C19.2327 7.44583 19.7549 7.63117 20.1708 8.00156C20.586 8.37225 20.794 8.88319 20.794 9.53469C20.7939 10.3657 20.5076 11.0565 19.9349 11.6061Z" fill="#003087"/>
    <path d="M49.9516 0.892549C49.0868 0.297997 47.9586 0 46.566 0H41.2095C40.7602 0 40.513 0.213458 40.4684 0.639962L38.2786 14.3845C38.2558 14.5195 38.2896 14.6429 38.3797 14.7552C38.4688 14.8676 38.5816 14.9235 38.7164 14.9235H41.4787C41.7482 14.9235 41.9278 14.7777 42.0179 14.4857L42.6243 10.5781C42.6466 10.3985 42.7252 10.2525 42.8602 10.14C42.995 10.0278 43.1632 9.95438 43.3656 9.92081C43.5675 9.88745 43.7581 9.87056 43.9382 9.87056C44.1178 9.87056 44.3309 9.88199 44.5781 9.90433C44.8251 9.92668 44.9828 9.93769 45.0497 9.93769C46.9815 9.93769 48.4971 9.39349 49.5977 8.30386C50.6983 7.21484 51.2485 5.70468 51.2485 3.77274C51.2486 2.44771 50.816 1.48762 49.9516 0.89224V0.892549ZM46.4986 6.43433C46.0045 6.77114 45.2632 6.9395 44.2753 6.9395L43.1971 6.97327L43.7698 3.36848C43.8143 3.12176 43.9603 2.99799 44.2076 2.99799H44.8138C45.308 2.99799 45.7009 3.02054 45.9934 3.06533C46.2848 3.11043 46.566 3.25058 46.8355 3.48628C47.1051 3.72218 47.2397 4.06487 47.2397 4.51382C47.2397 5.45744 46.9924 6.0972 46.4986 6.43433Z" fill="#009CDE"/>
    </svg>
    