<svg width="76" height="76" viewBox="0 0 76 76" fill="none" xmlns="http://www.w3.org/2000/svg">
<g clip-path="url(#clip0_13_227)">
<path d="M56.3986 14.155C56.1452 14.155 55.8919 14.0917 55.6702 13.965C49.5902 10.83 44.3336 9.5 38.0319 9.5C31.7619 9.5 25.8086 10.9883 20.3936 13.965C19.6336 14.3767 18.6836 14.0917 18.2402 13.3317C17.8286 12.5717 18.1136 11.59 18.8736 11.1783C24.7636 7.98 31.2236 6.33333 38.0319 6.33333C44.7769 6.33333 50.6669 7.82167 57.1269 11.1467C57.9186 11.5583 58.2036 12.5083 57.7919 13.2683C57.5069 13.8383 56.9686 14.155 56.3986 14.155ZM11.0836 30.78C10.7669 30.78 10.4502 30.685 10.1652 30.495C9.4369 29.9883 9.27857 29.0067 9.78524 28.2783C12.9202 23.845 16.9102 20.3617 21.6602 17.9233C31.6036 12.7933 44.3336 12.7617 54.3086 17.8917C59.0586 20.33 63.0486 23.7817 66.1836 28.1833C66.6903 28.88 66.5319 29.8933 65.8036 30.4C65.0753 30.9067 64.0936 30.7483 63.5869 30.02C60.7369 26.03 57.1269 22.895 52.8519 20.71C43.7636 16.055 32.1419 16.055 23.0852 20.7417C18.7786 22.9583 15.1686 26.125 12.3186 30.115C12.0652 30.5583 11.5902 30.78 11.0836 30.78ZM30.8752 69.0017C30.4636 69.0017 30.0519 68.8433 29.7669 68.5267C27.0119 65.7717 25.5236 63.9983 23.4019 60.1667C21.2169 56.2717 20.0769 51.5217 20.0769 46.4233C20.0769 37.0183 28.1202 29.355 38.0002 29.355C47.8802 29.355 55.9236 37.0183 55.9236 46.4233C55.9236 47.31 55.2269 48.0067 54.3402 48.0067C53.4536 48.0067 52.7569 47.31 52.7569 46.4233C52.7569 38.76 46.1386 32.5217 38.0002 32.5217C29.8619 32.5217 23.2436 38.76 23.2436 46.4233C23.2436 50.9833 24.2569 55.195 26.1886 58.615C28.2152 62.2567 29.6086 63.8083 32.0469 66.2783C32.6486 66.9117 32.6486 67.8933 32.0469 68.5267C31.6986 68.8433 31.2869 69.0017 30.8752 69.0017ZM53.5802 63.1433C49.8119 63.1433 46.4869 62.1933 43.7636 60.325C39.0452 57.1267 36.2269 51.9333 36.2269 46.4233C36.2269 45.5367 36.9236 44.84 37.8102 44.84C38.6969 44.84 39.3936 45.5367 39.3936 46.4233C39.3936 50.8883 41.6736 55.1 45.5369 57.6967C47.7852 59.2167 50.4136 59.945 53.5802 59.945C54.3402 59.945 55.6069 59.85 56.8736 59.6283C57.7286 59.47 58.5519 60.04 58.7103 60.9267C58.8686 61.7817 58.2986 62.605 57.4119 62.7633C55.6069 63.1117 54.0236 63.1433 53.5802 63.1433ZM47.2152 69.6667C47.0886 69.6667 46.9302 69.635 46.8036 69.6033C41.7686 68.21 38.4752 66.3417 35.0236 62.9533C30.5902 58.5517 28.1519 52.6933 28.1519 46.4233C28.1519 41.2933 32.5219 37.1133 37.9052 37.1133C43.2886 37.1133 47.6586 41.2933 47.6586 46.4233C47.6586 49.8117 50.6036 52.5667 54.2452 52.5667C57.8869 52.5667 60.8319 49.8117 60.8319 46.4233C60.8319 34.485 50.5402 24.795 37.8736 24.795C28.8802 24.795 20.6469 29.7983 16.9419 37.5567C15.7069 40.1217 15.0736 43.13 15.0736 46.4233C15.0736 48.8933 15.2952 52.7883 17.1952 57.855C17.5119 58.6783 17.1002 59.5967 16.2769 59.8817C15.4536 60.1983 14.5352 59.755 14.2502 58.9633C12.6986 54.815 11.9386 50.6983 11.9386 46.4233C11.9386 42.6233 12.6669 39.1717 14.0919 36.1633C18.3036 27.3283 27.6452 21.5967 37.8736 21.5967C52.2819 21.5967 63.9986 32.7117 63.9986 46.3917C63.9986 51.5217 59.6286 55.7017 54.2452 55.7017C48.8619 55.7017 44.4919 51.5217 44.4919 46.3917C44.4919 43.0033 41.5469 40.2483 37.9052 40.2483C34.2636 40.2483 31.3186 43.0033 31.3186 46.3917C31.3186 51.8067 33.4086 56.8733 37.2402 60.6733C40.2486 63.65 43.1302 65.2967 47.5952 66.5317C48.4502 66.7533 48.9252 67.64 48.7036 68.4633C48.5452 69.1917 47.8802 69.6667 47.2152 69.6667Z" fill="#323232"/>
</g>
<defs>
<clipPath id="clip0_13_227">
<rect width="76" height="76" fill="white"/>
</clipPath>
</defs>
</svg>
